<svg xmlns="http://www.w3.org/2000/svg" viewBox="0 0 80 80" fill="none">

  <!-- Navy background -->
  <rect width="80" height="80" rx="10" fill="#1B2848"/>

  <!-- Garage door (cream) -->
  <rect x="10" y="12" width="60" height="58" rx="3" fill="#F2EDE6"/>

  <!-- Panel lines -->
  <line x1="10" y1="26.5" x2="70" y2="26.5" stroke="#DDD9D0" stroke-width="1.5"/>
  <line x1="10" y1="41"   x2="70" y2="41"   stroke="#DDD9D0" stroke-width="1.5"/>
  <line x1="10" y1="55.5" x2="70" y2="55.5" stroke="#DDD9D0" stroke-width="1.5"/>

  <!-- Trident (amber) -->
  <path
    d="M29.5 19 L32 24 L32 34 L38 34 L38 21 L40.5 16 L43 21 L43 34 L49 34 L49 24 L51.5 19 L54 24 L54 36 L43 36 L43 68 Q43 70 40.5 70 Q38 70 38 68 L38 36 L27 36 L27 24 Z"
    fill="#C87830"
  />

</svg>
